<svg width="117" height="77" viewBox="0 0 117 77" fill="none" xmlns="http://www.w3.org/2000/svg">
<mask id="mask0_322_9" style="mask-type:alpha" maskUnits="userSpaceOnUse" x="0" y="0" width="117" height="77">
<rect width="117" height="77" fill="#C4C4C4"/>
</mask>
<g mask="url(#mask0_322_9)">
<path d="M25.775 30.0045C25.775 39.9456 33.8339 48.0045 43.775 48.0045L68.0274 48.0045C70.7889 48.0045 73.0274 45.7659 73.0274 43.0045L73.0274 11.6971C73.0274 6.17428 68.5503 1.69714 63.0274 1.69714L30.775 1.69714C28.0136 1.69714 25.775 3.93572 25.775 6.69714L25.775 30.0045Z" fill="#FFF1DA"/>
<path d="M71.6891 44.1689C70.4054 44.4564 69.1551 44.989 68.0158 45.7331C65.0476 47.6245 63.3207 50.3242 64.1589 51.7627C64.9971 53.2012 68.0828 52.8333 71.051 50.942C72.2056 50.2241 73.2313 49.3067 74.065 48.2464C74.4519 47.734 74.5214 47.0957 74.2424 46.6185L73.1535 44.7498C72.8764 44.2711 72.3018 44.0435 71.6891 44.1689Z" fill="#D5D6DB"/>
<path d="M64.2355 18.6591C63.3047 18.8678 62.398 19.2541 61.5718 19.7938C59.4201 21.1649 58.1672 23.1224 58.7745 24.1646C59.3817 25.2068 61.62 24.9398 63.7716 23.5689C64.6088 23.0481 65.3524 22.3825 65.9571 21.6136C66.2373 21.2423 66.2875 20.7798 66.0853 20.4338L65.2968 19.0807C65.0962 18.7337 64.6798 18.5683 64.2355 18.6591Z" fill="#D5D6DB"/>
<path d="M52.1256 19.7274C51.9184 19.7043 51.6975 19.7595 51.5058 19.8819L46.4516 23.1029C46.0288 23.3715 45.8596 23.8887 46.0741 24.2584C46.1231 24.3431 46.1902 24.4154 46.2717 24.4712L58.729 33.0569L75.5825 22.3167L52.1256 19.7274Z" fill="#029BC5"/>
<path d="M105.404 18.5134L59.5394 47.3866L32.4045 58.1842L18.566 60.935L17.0436 58.3482L93.4933 11.1462C95.7717 9.73351 98.3097 8.86638 100.851 8.63287C101.964 8.53657 103.063 8.57358 104.122 8.74255C105.061 8.88498 105.953 9.15972 106.769 9.55861C107.68 10.0106 109.414 10.0627 109.975 10.9632C109.977 10.9617 111.302 15.0957 105.404 18.5134V18.5134Z" fill="#E1E6E9"/>
<path d="M60.1474 43.5662L40.3059 75.1969C40.0581 75.6412 40.2052 76.1388 40.6341 76.3082C40.8974 76.4122 41.2196 76.3711 41.4902 76.1991L46.5406 72.9952C47.512 72.3787 48.3721 71.5957 49.0678 70.6945L87.5467 25.456L60.1474 43.5662Z" fill="#029BC5"/>
<path d="M10.0792 42.5101C9.7482 42.397 9.35431 42.4557 9.02182 42.6674L4.84708 45.3262C4.27824 45.6882 4.05157 46.3842 4.34062 46.881C4.39569 46.9754 4.46723 47.0585 4.55298 47.127L16.2496 56.4946L28.5475 48.8132L10.0792 42.5101Z" fill="#029BC5"/>
<path d="M20.1701 58.1834L13.8747 67.0002C13.7824 67.1269 13.8041 67.286 13.9231 67.3553C14.0089 67.4052 14.1261 67.3962 14.2214 67.3324L18.1228 64.8602C18.1531 64.841 18.1805 64.8169 18.2032 64.7894L27.4019 53.605L20.1701 58.1834Z" fill="#029BC5"/>
<path d="M103.369 9.12267C102.278 8.94743 101.146 8.91001 100 9.01076C98.8842 10.5711 98.171 12.3239 97.9315 14.0944C97.914 14.45 98.2007 14.706 98.572 14.6661C98.6875 14.6536 98.8022 14.613 98.9056 14.5481L106.095 9.96999C105.255 9.55549 104.337 9.27023 103.369 9.12267Z" fill="#029BC5"/>
<path d="M87.7009 17.5413L92.395 14.5767L96.7674 22.0133L92.0733 24.9779L87.7009 17.5413Z" fill="#D5D6DB"/>
<path d="M84.7474 20.4824C84.1818 20.8408 83.9556 21.5295 84.2428 22.0207L84.7081 22.8164C85.0141 23.295 85.7128 23.3792 86.2687 23.0043C86.7978 22.6472 87.0109 21.9983 86.7559 21.5191L86.2906 20.7234C86.0037 20.2327 85.313 20.1247 84.7474 20.4824V20.4824Z" fill="#3A556A"/>
<path d="M80.5284 23.1025C79.9628 23.4609 79.7367 24.1496 80.0238 24.6408L80.4891 25.4365C80.7951 25.9151 81.4938 25.9993 82.0497 25.6244C82.5788 25.2673 82.7919 24.6184 82.5369 24.1392L82.0716 23.3435C81.7845 22.8529 81.0938 22.7449 80.5284 23.1025V23.1025Z" fill="#3A556A"/>
<path d="M76.3079 25.7235C75.7428 26.0823 75.5175 26.7702 75.8045 27.2609L76.2697 28.0566C76.5758 28.5352 77.2744 28.6194 77.8304 28.2445C78.3594 27.8875 78.5725 27.2386 78.3175 26.7594L77.8523 25.9637C77.5651 25.4726 76.8737 25.3651 76.3079 25.7235V25.7235Z" fill="#3A556A"/>
<path d="M72.0889 28.3435C71.5238 28.7023 71.2985 29.3902 71.5855 29.881L72.0507 30.6767C72.3568 31.1553 73.0554 31.2395 73.6114 30.8646C74.1405 30.5075 74.3535 29.8586 74.0985 29.3794L73.6333 28.5837C73.3459 28.0927 72.6545 27.9852 72.0889 28.3435V28.3435Z" fill="#3A556A"/>
<path d="M67.8702 30.9638C67.3049 31.3228 67.0794 32.011 67.3665 32.5019L67.8321 33.298C68.1191 33.7887 68.8101 33.8962 69.3756 33.538C69.9411 33.1799 70.1669 32.4917 69.8799 32.001L69.4144 31.2049C69.1281 30.7137 68.4373 30.6055 67.8714 30.9631C67.8709 30.9634 67.8707 30.9635 67.8702 30.9638Z" fill="#3A556A"/>
<path d="M63.6512 33.5839C63.0859 33.9429 62.8604 34.6311 63.1476 35.122L63.6131 35.9181C63.9001 36.4088 64.5911 36.5163 65.1566 36.1581C65.7221 35.8 65.9479 35.1118 65.6609 34.6211L65.1954 33.825C64.9091 33.3338 64.2183 33.2256 63.6524 33.5832C63.6519 33.5835 63.6515 33.5838 63.6512 33.5839Z" fill="#3A556A"/>
<path d="M59.4318 36.2041C58.8665 36.5631 58.6411 37.2513 58.9282 37.7422L59.3937 38.5382C59.6814 39.0285 60.3728 39.1349 60.9377 38.7762C61.5016 38.4182 61.7269 37.7315 61.4412 37.2414L60.9757 36.4453C60.6889 35.9543 59.9978 35.8462 59.4318 36.2041Z" fill="#3A556A"/>
<path d="M55.2126 38.8242C54.6473 39.1832 54.4218 39.8714 54.7089 40.3624L55.1745 41.1584C55.4622 41.6487 56.1536 41.7551 56.7184 41.3964C57.2824 41.0384 57.5077 40.3517 57.222 39.8615L56.7565 39.0655C56.4696 38.5744 55.7786 38.4663 55.2126 38.8242Z" fill="#3A556A"/>
<path d="M50.9937 41.4443C50.4284 41.8033 50.203 42.4915 50.4901 42.9824L50.9556 43.7784C51.2433 44.2687 51.9347 44.3751 52.4996 44.0165C53.0635 43.6584 53.2888 42.9717 53.0031 42.4816L52.5376 41.6856C52.2505 41.1946 51.5595 41.0866 50.9937 41.4443Z" fill="#3A556A"/>
<path d="M46.7733 44.0652C46.2078 44.4233 45.982 45.1115 46.269 45.6022L46.2696 45.6033L46.7351 46.3993C47.0228 46.8896 47.7142 46.996 48.2791 46.6373C48.843 46.2793 49.0683 45.5926 48.7827 45.1024L48.3172 44.3064C48.0303 43.8153 47.3392 43.7072 46.7733 44.0652Z" fill="#3A556A"/>
<path d="M42.5554 46.6846C41.9899 47.0427 41.7641 47.7309 42.0511 48.2216L42.0517 48.2226L42.5173 49.0186C42.805 49.5089 43.4964 49.6153 44.0613 49.2567C44.6252 48.8987 44.8505 48.2119 44.5648 47.7218L44.0993 46.9258C43.8122 46.4349 43.1211 46.3268 42.5554 46.6846Z" fill="#3A556A"/>
</g>
</svg>
