<svg width="145" height="34" viewBox="0 0 145 34" fill="none" xmlns="http://www.w3.org/2000/svg">
<path d="M19.316 1.936V24.464C19.316 27.2507 18.5387 29.4213 16.984 30.976C15.4293 32.5307 13.2733 33.308 10.516 33.308C7.524 33.308 5.17733 32.4427 3.476 30.712C1.77467 28.9813 0.924 26.532 0.924 23.364H5.896C5.896 25.0653 6.248 26.3853 6.952 27.324C7.68533 28.2627 8.8 28.732 10.296 28.732C11.6747 28.732 12.6867 28.336 13.332 27.544C13.9773 26.752 14.3 25.7253 14.3 24.464V1.936H19.316ZM34.8889 8.448C37.0889 8.448 38.9662 8.99067 40.5209 10.076C42.0756 11.1613 43.1756 12.5987 43.8209 14.388V8.756H48.8369V33H43.8209V27.368C43.1756 29.1573 42.0756 30.5947 40.5209 31.68C38.9662 32.7653 37.0889 33.308 34.8889 33.308C32.7769 33.308 30.8849 32.8093 29.2129 31.812C27.5702 30.8147 26.2796 29.3773 25.3409 27.5C24.4022 25.6227 23.9329 23.408 23.9329 20.856C23.9329 18.3333 24.4022 16.1333 25.3409 14.256C26.2796 12.3787 27.5702 10.9413 29.2129 9.944C30.8849 8.94667 32.7769 8.448 34.8889 8.448ZM36.4289 12.848C34.1996 12.848 32.4102 13.5667 31.0609 15.004C29.7409 16.412 29.0809 18.3627 29.0809 20.856C29.0809 23.3493 29.7409 25.3147 31.0609 26.752C32.4102 28.16 34.1996 28.864 36.4289 28.864C37.8369 28.864 39.0982 28.5413 40.2129 27.896C41.3276 27.2213 42.2076 26.2827 42.8529 25.08C43.4982 23.8773 43.8209 22.4693 43.8209 20.856C43.8209 19.272 43.4982 17.8787 42.8529 16.676C42.2076 15.444 41.3276 14.5053 40.2129 13.86C39.0982 13.1853 37.8369 12.848 36.4289 12.848ZM64.5803 8.448C66.7803 8.448 68.6576 8.99067 70.2123 10.076C71.767 11.1613 72.8523 12.5987 73.4683 14.388V0.44H78.5283V33H73.4683V27.368C72.8523 29.1573 71.767 30.5947 70.2123 31.68C68.6576 32.7653 66.7803 33.308 64.5803 33.308C62.4683 33.308 60.5763 32.8093 58.9043 31.812C57.2616 30.8147 55.971 29.3773 55.0323 27.5C54.0936 25.6227 53.6243 23.408 53.6243 20.856C53.6243 18.3333 54.0936 16.1333 55.0323 14.256C55.971 12.3787 57.2616 10.9413 58.9043 9.944C60.5763 8.94667 62.4683 8.448 64.5803 8.448ZM66.1203 12.848C63.891 12.848 62.1016 13.5667 60.7523 15.004C59.4323 16.412 58.7723 18.3627 58.7723 20.856C58.7723 23.3493 59.4323 25.3147 60.7523 26.752C62.1016 28.16 63.891 28.864 66.1203 28.864C67.5283 28.864 68.7896 28.5413 69.9043 27.896C71.019 27.2213 71.899 26.2827 72.5443 25.08C73.1896 23.8773 73.5123 22.4693 73.5123 20.856C73.5123 19.272 73.1896 17.8787 72.5443 16.676C71.899 15.444 71.019 14.5053 69.9043 13.86C68.7896 13.1853 67.5283 12.848 66.1203 12.848ZM95.6357 8.448C97.9824 8.448 100.094 8.94667 101.972 9.944C103.849 10.9413 105.316 12.3787 106.372 14.256C107.428 16.1333 107.956 18.3333 107.956 20.856C107.956 23.408 107.428 25.6227 106.372 27.5C105.316 29.3773 103.849 30.8147 101.972 31.812C100.094 32.8093 97.9824 33.308 95.6357 33.308C93.2891 33.308 91.1771 32.8093 89.2997 31.812C87.4517 30.8147 85.9851 29.3773 84.8997 27.5C83.8437 25.5933 83.3157 23.3787 83.3157 20.856C83.3157 18.3333 83.8437 16.1333 84.8997 14.256C85.9851 12.3787 87.4517 10.9413 89.2997 9.944C91.1771 8.94667 93.2891 8.448 95.6357 8.448ZM95.6357 12.804C94.3451 12.804 93.1571 13.0973 92.0717 13.684C90.9864 14.2707 90.1064 15.18 89.4317 16.412C88.7864 17.6147 88.4637 19.096 88.4637 20.856C88.4637 22.6453 88.7864 24.1413 89.4317 25.344C90.1064 26.5467 90.9864 27.4413 92.0717 28.028C93.1571 28.6147 94.3451 28.908 95.6357 28.908C96.9264 28.908 98.1144 28.6147 99.1997 28.028C100.285 27.4413 101.15 26.5467 101.796 25.344C102.47 24.1413 102.808 22.6453 102.808 20.856C102.808 19.096 102.47 17.6147 101.796 16.412C101.15 15.18 100.285 14.2707 99.1997 13.684C98.1144 13.0973 96.9264 12.804 95.6357 12.804ZM123.866 8.448C126.213 8.448 128.325 8.94667 130.202 9.944C132.08 10.9413 133.546 12.3787 134.602 14.256C135.658 16.1333 136.186 18.3333 136.186 20.856C136.186 23.408 135.658 25.6227 134.602 27.5C133.546 29.3773 132.08 30.8147 130.202 31.812C128.325 32.8093 126.213 33.308 123.866 33.308C121.52 33.308 119.408 32.8093 117.53 31.812C115.682 30.8147 114.216 29.3773 113.13 27.5C112.074 25.5933 111.546 23.3787 111.546 20.856C111.546 18.3333 112.074 16.1333 113.13 14.256C114.216 12.3787 115.682 10.9413 117.53 9.944C119.408 8.94667 121.52 8.448 123.866 8.448ZM123.866 12.804C122.576 12.804 121.388 13.0973 120.302 13.684C119.217 14.2707 118.337 15.18 117.662 16.412C117.017 17.6147 116.694 19.096 116.694 20.856C116.694 22.6453 117.017 24.1413 117.662 25.344C118.337 26.5467 119.217 27.4413 120.302 28.028C121.388 28.6147 122.576 28.908 123.866 28.908C125.157 28.908 126.345 28.6147 127.43 28.028C128.516 27.4413 129.381 26.5467 130.026 25.344C130.701 24.1413 131.038 22.6453 131.038 20.856C131.038 19.096 130.701 17.6147 130.026 16.412C129.381 15.18 128.516 14.2707 127.43 13.684C126.345 13.0973 125.157 12.804 123.866 12.804ZM144.969 27.456V33H139.293V27.456H144.969Z" fill="#181E4B"/>
</svg>
